<svg width="32" height="31" viewBox="0 0 32 31" fill="none" xmlns="http://www.w3.org/2000/svg">
<path d="M15.3875 10.1296L15.2183 10.9025C14.4845 14.314 13.1322 17.5623 11.2283 20.4867M11.2283 20.4867C14.3791 19.1007 17.713 18.1753 21.1275 17.7392L21.4046 17.7012M11.2283 20.4867C10.0111 21.0194 8.81721 21.6203 7.64666 22.2892L2.67082 25.1329C1.28541 25.9233 0.987909 28.0321 2.08166 29.2833C3.04999 30.3887 4.64832 30.2692 5.47957 29.0296L11.0504 20.755L11.2283 20.4867ZM15.3846 10.1296L16.7467 3.89958C17.2192 1.74708 15.125 0.0612495 13.5092 1.29208C12.6429 1.95125 12.3221 3.23167 12.7508 4.31667L13.4683 6.11625C14.0244 7.5143 14.6632 8.85208 15.3846 10.1296ZM15.3846 10.1296C16.9733 12.9592 19.0058 15.5156 21.4046 17.7012M21.4046 17.7012L27.9817 16.8671C29.825 16.6337 31.1608 18.8242 30.3325 20.7171C29.7287 22.0996 28.2296 22.61 27.0629 21.8313L24.5808 20.1746C23.4629 19.4291 22.4013 18.6024 21.4046 17.7012Z" stroke="black"/>
</svg>
