<svg width="48" height="56" viewBox="0 0 48 56" fill="none" xmlns="http://www.w3.org/2000/svg">
<path d="M11.7267 54.9792H36.2733C38.9807 54.9792 41.5773 53.9036 43.4917 51.9892C45.4061 50.0748 46.4817 47.4782 46.4817 44.7708V28.6417C46.4826 25.9346 45.4083 23.338 43.495 21.4229L26.0854 4.01042C25.1374 3.06251 24.012 2.31061 22.7734 1.79765C21.5348 1.2847 20.2073 1.02074 18.8667 1.02083H11.7267C9.01924 1.02083 6.42271 2.09635 4.50828 4.01078C2.59384 5.92522 1.51833 8.52175 1.51833 11.2292V44.7708C1.51833 47.4782 2.59384 50.0748 4.50828 51.9892C6.42271 53.9036 9.01924 54.9792 11.7267 54.9792Z" stroke="black" stroke-width="1.5" stroke-linecap="round" stroke-linejoin="round"/>
</svg>
